<svg id="Layer_1" height="512" viewBox="0 0 512 512" width="512" xmlns="http://www.w3.org/2000/svg" xmlns:xlink="http://www.w3.org/1999/xlink" data-name="Layer 1"><linearGradient id="linear-gradient" gradientUnits="userSpaceOnUse" x1="166.183" x2="166.183" y1="496.079" y2="60.981"><stop offset=".322" stop-color="#a163f5"/><stop offset=".466" stop-color="#b074ee"/><stop offset=".752" stop-color="#d8a1dd"/><stop offset=".898" stop-color="#efbad3"/></linearGradient><linearGradient id="linear-gradient-2" x1="349.987" x2="349.987" xlink:href="#linear-gradient" y1="496.078" y2="60.981"/><linearGradient id="linear-gradient-3" x1="256" x2="256" xlink:href="#linear-gradient" y1="496.078" y2="60.982"/><linearGradient id="linear-gradient-4" x1="256.284" x2="256.284" xlink:href="#linear-gradient" y1="496.079" y2="60.98"/><path d="m211.435 193.087c-44.98-30.42-84.056-1.725-94.96 7.8a10.792 10.792 0 0 0 -.013 16c7.323 6.406 27.347 21.477 53.336 21.477 12.714 0 26.858-3.608 41.636-13.6a19.654 19.654 0 0 0 0-31.666zm-6.723 21.725c-12.535 8.478-24.461 11.588-35.212 11.588-19.836 0-35.674-10.574-43.922-17.508 12.717-10.673 43.482-29.974 79.136-5.859a7.72 7.72 0 0 1 0 11.784z" fill="url(#linear-gradient)"/><path d="m403.248 208.9a10.587 10.587 0 0 0 -3.553-8c-10.9-9.52-49.98-38.216-94.961-7.8a19.655 19.655 0 0 0 0 31.666c14.782 10 28.92 13.6 41.636 13.6 25.986 0 46.014-15.072 53.336-21.477a10.577 10.577 0 0 0 3.542-7.989zm-91.79 5.93a7.722 7.722 0 0 1 0-11.786c12.55-8.488 24.492-11.6 35.256-11.6 19.818 0 35.638 10.541 43.88 17.456-12.719 10.7-43.48 30.044-79.136 5.932z" fill="url(#linear-gradient-2)"/><path d="m256 5a194.424 194.424 0 0 0 -192.236 221.662l18.026 128.55a175.879 175.879 0 0 0 348.419 0l18.027-128.551a194.425 194.425 0 0 0 -192.236-221.661zm112.42 61.285a24.391 24.391 0 0 1 2.657-8.206 182.3 182.3 0 0 1 22.208 21.521q4.614 5.307 8.77 10.916a23.421 23.421 0 0 1 -33.635-24.231zm-45.648-34.753c.017-.593.064-1.183.125-1.769a181.946 181.946 0 0 1 37.98 20.545 23.308 23.308 0 0 1 -38.105-18.776zm-5.806 20.685c-5.244 6.165-13.532 18.588-10.862 33.241 2.908 15.967 17.775 29.241 44.189 39.454a65.459 65.459 0 0 1 36.958 34.8 101.874 101.874 0 0 0 -34.025-6.727c-20.55-29.7-48.815-33.349-62.476-33.171 3.3-29.987.207-57.721-1.879-71.317l.072.008q1.428.129 2.844.129a32.711 32.711 0 0 0 20.213-7.141 35.336 35.336 0 0 0 4.966 10.724zm-96.591 197.01a63.047 63.047 0 0 0 13.249-12.227l4.261 71.954a28.441 28.441 0 0 1 -4.666 17.391c-8.362-26.258-34.319-49.961-50.441-62.679 14.089-2.174 27.072-7.108 37.597-14.439zm-54.192 3.721c-36.277 0-65.79-19.738-65.79-44s29.513-44 65.79-44 65.79 19.738 65.79 44-29.513 44-65.79 44zm67.586 90.077a40.387 40.387 0 0 0 16.1-34.776l-5.9-99.654c-.128-15.24-8.486-29.407-23.586-39.923-11.811-8.226-26.711-13.452-42.805-15.131a61.877 61.877 0 0 1 49.422-21.192c4 18.077 9.4 33.263 16.205 45.339a17.9 17.9 0 0 0 31.386-.6c7.382-14.208 11.885-29.793 14.492-45.2a61.9 61.9 0 0 1 49.4 21.65c-16.05 1.692-30.907 6.911-42.691 15.117-15.217 10.6-23.6 24.9-23.6 40.278v102.717a35.2 35.2 0 0 0 12.639 27.072l4.974 4.159c-1.759 11.157-12.722 18.341-28.069 18.341-15.248 0-26.456-7.264-28.067-18.125zm7.264-203.813c-5.774-21.692-8.287-45.312-9.342-63.85a47.63 47.63 0 0 0 8.217 3.453 45.477 45.477 0 0 0 13.575 2.066c7.5 0 16.3-1.843 25.978-7.211 1.167 17.562 1.113 40.371-3.488 62.753-14.28 12.355-29.773 5.648-34.94 2.789zm30.611 13.739a121.708 121.708 0 0 1 -7.7 18.607 5.907 5.907 0 0 1 -10.282.241 119.066 119.066 0 0 1 -8.029-17.815 44.7 44.7 0 0 0 11.752 1.62 39.133 39.133 0 0 0 14.259-2.653zm16.3 171.365a23.251 23.251 0 0 1 -3.744-12.666v-72.7a64.639 64.639 0 0 0 11.6 10.255c12.56 8.747 28.614 14.093 45.879 15.4-11.744 9.128-23.743 21.1-35.853 35.838-7.915 9.625-14.073 18.257-17.886 23.873zm-3.744-115.385c0-24.261 29.513-44 65.79-44s65.79 19.737 65.79 44-29.513 44-65.79 44-65.79-19.739-65.79-44zm26.182-183.591c-4.291 7.432-12.151 11.964-20.353 11.217-12.8-1.163-19.172-7.07-20.39-19.034a181.6 181.6 0 0 1 40.743 7.817zm-49.553 10.45c.552-.626 1.069-1.266 1.571-1.912a28.121 28.121 0 0 0 13.806 11.662c.53 3.077 1.331 8.2 2.069 14.8-24.414 16.492-41.967 4.711-47.18.281-.113-4.676-.136-8.663-.122-11.737.3.025.591.054.889.072q.809.047 1.624.047c9.725-.003 20.066-4.965 27.343-13.213zm-4.829-18.79c.427 0 .852.014 1.279.017a21.782 21.782 0 0 1 -5.448 10.834c-5.221 5.916-12.782 9.5-19.274 9.12a23.432 23.432 0 0 1 -20.194-14.656 181.738 181.738 0 0 1 43.637-5.315zm-54.682 36.459a33.6 33.6 0 0 0 8.928-13.7 35.649 35.649 0 0 0 8.745 5.882 439.683 439.683 0 0 0 1.791 45.345q1.428 15.614 3.839 29.307c-36.632-.073-55.986 23.957-61.818 32.715-18.279.556-35.455 5.619-48.942 14.421 5.9-12.466 18.676-29.213 46.351-42.936 27.887-13.828 43.251-29.4 45.663-46.3a33.952 33.952 0 0 0 -5.695-23.724c.385-.326.766-.662 1.138-1.01zm-1.4-27.577c.065 1.07.093 2.193.082 3.51a21.113 21.113 0 0 1 -6.877 15.3 24.045 24.045 0 0 1 -17.748 6.41 23.27 23.27 0 0 1 -15.147-6.815 181.874 181.874 0 0 1 39.688-18.405zm-81.203 53.718a182.272 182.272 0 0 1 30.734-28.083 18.67 18.67 0 0 1 2.063 8.212 23.4 23.4 0 0 1 -22.045 24.616 22.768 22.768 0 0 1 -12.308-2.906c.519-.609 1.028-1.228 1.556-1.839zm-9.45 11.828a19.037 19.037 0 0 1 4.854 12.25c.155 13.271-9.524 24.193-22.038 24.865a32.009 32.009 0 0 1 -3.842-.037 182.554 182.554 0 0 1 21.026-37.074zm9.872 329.672a164.568 164.568 0 0 1 -25.463-67.555l-18.027-128.545a182.905 182.905 0 0 1 8.172-84.906 43.9 43.9 0 0 0 6.628.5c.762 0 1.524-.02 2.278-.06 18.957-1.018 33.625-17.266 33.393-36.989a29.682 29.682 0 0 0 -.993-7.309q1.57.145 3.154.148.913 0 1.831-.049a35.405 35.405 0 0 0 33.426-35.755 35.236 35.236 0 0 0 11.143 2.509q1.029.06 2.055.06a36.093 36.093 0 0 0 13.163-2.5 22.175 22.175 0 0 1 4.079 15.992c-1.874 12.52-15.392 25.351-39.095 37.1-50.738 25.159-57.156 60.474-57.962 69.562a43.849 43.849 0 0 0 -8.526 25.645c0 11.891 5.032 23.133 14.343 32.524a33.324 33.324 0 0 0 -5.917 23.742c2.4 16.848 17.866 32.457 45.975 46.395q.792.393 1.563.786a38.739 38.739 0 0 1 21.372 33.982 38.023 38.023 0 0 1 -19.187 34.423c-20.542 11.86-26.242 28.431-27.4 40.244-.002.019-.003.038-.005.056zm29.327 33.6a164.137 164.137 0 0 1 -15.839-15.831c-1.651-5.371-7.963-31.578 19.918-47.678a49.864 49.864 0 0 0 25.182-45.121 50.577 50.577 0 0 0 -27.916-44.36q-.835-.426-1.686-.847c-23.912-11.857-37.537-24.718-39.4-37.192a21.111 21.111 0 0 1 3.25-14.456l.02.015c14.1 9.823 32.615 15.354 52.3 15.689a234.949 234.949 0 0 1 28.135 23.1c17.985 17.386 28.633 34.158 30.977 48.7a11.23 11.23 0 0 0 -1.7 7.407 30.12 30.12 0 0 0 5.79 14.259 133.877 133.877 0 0 0 -64.984 65.04 144.922 144.922 0 0 0 -11.031 33.83q-1.52-1.255-3.016-2.555zm107.536 40.3a163.514 163.514 0 0 1 -45.869-6.574c8.863-15.021 24.983-24.111 43.506-24.111a51.037 51.037 0 0 1 44.033 25.276 163.478 163.478 0 0 1 -41.67 5.409zm53.417-8.976a63.035 63.035 0 0 0 -55.78-33.709c-23.793 0-44.412 12.224-55.1 32.255a163.765 163.765 0 0 1 -36.229-19.07c1.9-14.229 13.322-72.055 74.978-98.36 6.25 3.735 14.381 6.079 24.455 6.079a47.829 47.829 0 0 0 23.769-5.819c36.016 21.668 54.324 45.528 63.379 61.932 7.286 13.2 9.886 23.764 10.769 28.631a163.769 163.769 0 0 1 -50.241 28.061zm75.383-53.724a164.005 164.005 0 0 1 -14.891 16.527c-4.987-18.437-21.381-56.335-74.7-89.564a30.367 30.367 0 0 0 6.547-15.147 11.181 11.181 0 0 0 -3.912-10.158l-1.227-1.026c8.671-12.964 36.211-51.56 67.475-68.921 14.874-1.938 28.614-6.929 39.691-14.538a20.945 20.945 0 0 1 3.418 14.205c-1.712 12.421-15.307 25.279-39.314 37.183q-.851.423-1.688.848a49.927 49.927 0 0 0 -27.576 42.513 52.14 52.14 0 0 0 24.629 46.835c23.823 15.131 22.348 36.024 21.548 41.243zm51.552-207.3-18.026 128.546a164.561 164.561 0 0 1 -22.386 62.686c-2.4-10.945-9.132-24.43-26.255-35.305a40.268 40.268 0 0 1 -19.075-36.143 38.054 38.054 0 0 1 21.041-32.384q.776-.395 1.567-.788c28.125-13.946 43.558-29.521 45.871-46.3a32.962 32.962 0 0 0 -6.007-23.51c9.536-9.461 14.695-20.835 14.695-32.874 0-15.376-8.381-29.68-23.6-40.278-.516-.359-1.051-.7-1.578-1.047a77.624 77.624 0 0 0 -47.981-53.887c-21.9-8.467-34.59-18.963-36.7-30.352-1.709-9.224 3.637-17.759 7.46-22.489a35.06 35.06 0 0 0 19.669 6.725c.351.01.7.015 1.046.015a35.277 35.277 0 0 0 10.274-1.531 35.423 35.423 0 0 0 30.191 38.527 35.883 35.883 0 0 0 5.045.357c.1 0 .2-.006.307-.006a33.516 33.516 0 0 0 -1.9 7.335 35.336 35.336 0 0 0 41.831 39.69 182.938 182.938 0 0 1 4.511 73.013zm-27.243-124.274a182.585 182.585 0 0 1 19.184 39.692 23.316 23.316 0 0 1 -26.405-26.437 21.309 21.309 0 0 1 7.221-13.255z" fill="url(#linear-gradient-3)"/><path d="m256.284 396.294c-24.324 0-50.5 6.679-50.5 21.342s26.179 21.341 50.5 21.341 50.5-6.679 50.5-21.341-26.176-21.342-50.5-21.342zm0 30.683c-24.224 0-37.28-6.645-38.47-9.341 1.189-2.7 14.245-9.342 38.47-9.342s37.281 6.645 38.47 9.342c-1.19 2.696-14.245 9.341-38.47 9.341z" fill="url(#linear-gradient-4)"/></svg>